<svg width="161" height="113" viewBox="0 0 161 113" fill="none" xmlns="http://www.w3.org/2000/svg">
<path fill-rule="evenodd" clip-rule="evenodd" d="M158.042 107.17V81.9185H2.3584V107.17H158.042Z" fill="#001C4E"/>
<path fill-rule="evenodd" clip-rule="evenodd" d="M22.4089 99.9361H21.5842V94.9071H14.5004V99.9361H13.6757V89.3188H14.5004V94.223H21.5842V89.3188H22.4089V99.9361ZM36.3427 99.9361H35.518V89.3188H36.3427V99.9361ZM50.2615 99.2504H55.5078V99.9361H49.4359V89.3188H50.2615V99.2504ZM72.8511 90.0028H68.2115V94.0357H72.4001V94.7198H68.2115V99.9361H67.3868V89.3188H72.8511V90.0028ZM85.6955 99.9361H84.8691V89.3188H85.6955V99.9361ZM107.678 91.0156C106.385 90.2841 105.186 89.9412 103.91 89.9412C101.217 89.9412 99.224 91.9344 99.224 94.6274C99.224 97.0084 100.796 99.3136 104.142 99.3136C105.373 99.3136 106.215 99.0798 107.055 98.6603V95.795H104.812V95.111H107.88V99.1747C106.618 99.7813 105.342 100.077 104.112 100.077C100.813 100.077 98.3377 97.7424 98.3377 94.5975C98.3377 91.4833 100.751 89.1798 104.037 89.1798C105.234 89.1798 106.184 89.412 107.679 90.0819V91.0156H107.678ZM126.452 90.0028H121.487V94.2538H126.328V94.9379H121.487V99.2504H126.578V99.9361H120.661V89.3188H126.452V90.0028ZM139.763 90.0028H141.49C143.438 90.0028 144.293 90.8758 144.293 92.0734C144.293 93.3508 143.39 94.1606 141.521 94.1606H139.763V90.0028ZM138.939 89.3188V99.9361H139.763V94.8455H141.195C142.472 94.8455 142.877 95.0161 144.154 97.0251L146.007 99.9361H146.972L144.575 96.2627C144.075 95.5154 143.655 94.9071 143.157 94.6441C144.511 94.1448 145.181 93.2884 145.181 92.0601C145.181 90.6428 144.263 89.3196 141.664 89.3196L138.939 89.3188ZM2.46326 30.3713V81.9187H79.8425V30.3713H2.46326Z" fill="white"/>
<path fill-rule="evenodd" clip-rule="evenodd" d="M79.8427 81.9187H158.043V86.8188H158.056V30.3713H79.8427V81.9187Z" fill="#B81D37"/>
<path fill-rule="evenodd" clip-rule="evenodd" d="M158.056 30.3713V5.11938H2.37085V30.3713H158.056Z" fill="#001C4E"/>
<path fill-rule="evenodd" clip-rule="evenodd" d="M22.3497 13.6747H18.3643V23.6072H17.5387V13.6747H13.5532V12.9889H22.3497V13.6747ZM52.3194 18.2976C52.3194 20.9441 50.2647 22.9838 47.6024 22.9838C44.9402 22.9838 42.8538 20.9441 42.8538 18.2976C42.8538 15.6512 44.9394 13.6123 47.6024 13.6123C50.2639 13.6123 52.3194 15.6512 52.3194 18.2976ZM53.2066 18.2976C53.2066 15.2459 50.7307 12.8491 47.5716 12.8491C44.4267 12.8491 41.9667 15.2467 41.9667 18.2976C41.9667 21.3485 44.4267 23.7461 47.5716 23.7461C50.7307 23.747 53.2066 21.3494 53.2066 18.2976ZM84.0326 12.9889H84.8582V23.6072H84.0326V14.1873H84.0018L79.9847 19.154L75.9685 14.1873H75.9368V23.6072H75.1113V12.9889H75.9368L79.9847 17.9248L84.0326 12.9889ZM116.118 12.9889H116.943V23.6072H116.118V14.1873H116.087L112.071 19.154L108.054 14.1873H108.024V23.6072H107.198V12.9889H108.024L112.071 17.9248L116.118 12.9889ZM143.037 17.909V23.6072H142.211V17.909L138.086 12.9889H139.082L142.632 17.1924L146.166 12.9889H147.162L143.037 17.909Z" fill="white"/>
</svg>
