<svg width="34" height="34" viewBox="0 0 34 34" fill="none" xmlns="http://www.w3.org/2000/svg">
<g clip-path="url(#clip0_23_3285)">
<path d="M33.7226 16.9636C33.7226 7.59302 26.173 -0.00292969 16.8615 -0.00292969C7.54567 -0.000822043 -0.00390625 7.59302 -0.00390625 16.9657C-0.00390625 25.4321 6.16306 32.4506 14.2227 33.7236V21.8681H9.94417V16.9657H14.2269V13.2246C14.2269 8.97353 16.7455 6.62561 20.5962 6.62561C22.4425 6.62561 24.371 6.95651 24.371 6.95651V11.1296H22.2444C20.1515 11.1296 19.4981 12.4385 19.4981 13.7811V16.9636H24.1729L23.4268 21.866H19.496V33.7215C27.5556 32.4485 33.7226 25.43 33.7226 16.9636Z" fill="#FFB504"/>
</g>
<defs>
<clipPath id="clip0_23_3285">
<rect width="33.7223" height="33.7223" fill="white"/>
</clipPath>
</defs>
</svg>
