<svg width="35" height="35" viewBox="0 0 35 35" fill="none" xmlns="http://www.w3.org/2000/svg">
<rect x="0.564453" y="0.796875" width="33.7223" height="33.7223" rx="16.8612" fill="#FFB504"/>
<path d="M22.578 8.38477H12.274C11.1808 8.38477 10.1325 8.81901 9.35954 9.59196C8.58658 10.3649 8.15234 11.4133 8.15234 12.5064V22.8104C8.15234 23.9035 8.58658 24.9519 9.35954 25.7248C10.1325 26.4978 11.1808 26.932 12.274 26.932H22.578C23.6711 26.932 24.7195 26.4978 25.4924 25.7248C26.2654 24.9519 26.6996 23.9035 26.6996 22.8104V12.5064C26.6996 11.4133 26.2654 10.3649 25.4924 9.59196C24.7195 8.81901 23.6711 8.38477 22.578 8.38477Z" stroke="#202020" stroke-width="2.16786" stroke-linejoin="round"/>
<path d="M17.4263 21.7794C18.5194 21.7794 19.5678 21.3451 20.3407 20.5722C21.1137 19.7992 21.5479 18.7509 21.5479 17.6577C21.5479 16.5646 21.1137 15.5163 20.3407 14.7433C19.5678 13.9704 18.5194 13.5361 17.4263 13.5361C16.3332 13.5361 15.2848 13.9704 14.5119 14.7433C13.7389 15.5163 13.3047 16.5646 13.3047 17.6577C13.3047 18.7509 13.7389 19.7992 14.5119 20.5722C15.2848 21.3451 16.3332 21.7794 17.4263 21.7794Z" stroke="#202020" stroke-width="2.16786" stroke-linejoin="round"/>
<mask id="path-4-inside-1_1041_3313" fill="white">
<path d="M23.0929 13.0217C23.3662 13.0217 23.6283 12.9132 23.8215 12.7199C24.0147 12.5267 24.1233 12.2646 24.1233 11.9913C24.1233 11.7181 24.0147 11.456 23.8215 11.2627C23.6283 11.0695 23.3662 10.9609 23.0929 10.9609C22.8196 10.9609 22.5575 11.0695 22.3643 11.2627C22.1711 11.456 22.0625 11.7181 22.0625 11.9913C22.0625 12.2646 22.1711 12.5267 22.3643 12.7199C22.5575 12.9132 22.8196 13.0217 23.0929 13.0217Z"/>
</mask>
<path d="M23.0929 15.1896C23.9411 15.1896 24.7546 14.8526 25.3544 14.2529L22.2886 11.187C22.5019 10.9737 22.7912 10.8539 23.0929 10.8539V15.1896ZM25.3544 14.2529C25.9542 13.6531 26.2912 12.8396 26.2912 11.9913H21.9554C21.9554 11.6897 22.0753 11.4004 22.2886 11.187L25.3544 14.2529ZM26.2912 11.9913C26.2912 11.1431 25.9542 10.3296 25.3544 9.72983L22.2886 12.7956C22.0753 12.5823 21.9554 12.293 21.9554 11.9913H26.2912ZM25.3544 9.72983C24.7546 9.13003 23.9411 8.79307 23.0929 8.79307V13.1288C22.7912 13.1288 22.5019 13.009 22.2886 12.7956L25.3544 9.72983ZM23.0929 8.79307C22.2447 8.79307 21.4312 9.13003 20.8314 9.72983L23.8972 12.7956C23.6839 13.009 23.3946 13.1288 23.0929 13.1288V8.79307ZM20.8314 9.72983C20.2316 10.3296 19.8946 11.1431 19.8946 11.9913H24.2304C24.2304 12.293 24.1105 12.5823 23.8972 12.7956L20.8314 9.72983ZM19.8946 11.9913C19.8946 12.8396 20.2316 13.6531 20.8314 14.2529L23.8972 11.187C24.1105 11.4004 24.2304 11.6897 24.2304 11.9913H19.8946ZM20.8314 14.2529C21.4312 14.8526 22.2447 15.1896 23.0929 15.1896V10.8539C23.3946 10.8539 23.6839 10.9737 23.8972 11.187L20.8314 14.2529Z" fill="#202020" mask="url(#path-4-inside-1_1041_3313)"/>
</svg>
