<svg width="184" height="82" viewBox="0 0 184 82" fill="none" xmlns="http://www.w3.org/2000/svg">
<path d="M51.9875 34.4117C51.9875 37.4822 51.9875 40.5532 51.9875 43.6247C51.9875 43.9988 51.9875 44.373 51.9573 44.7472C51.9369 44.9159 51.8592 45.0726 51.7371 45.1909C51.6151 45.3093 51.456 45.3821 51.2867 45.3972C51.1385 45.4165 50.989 45.4239 50.8396 45.4194C49.4159 45.4194 47.9932 45.4194 46.5716 45.4194C46.3849 45.426 46.198 45.4101 46.0151 45.3718C45.8671 45.3421 45.7299 45.2727 45.6182 45.171C45.5065 45.0694 45.4245 44.9393 45.381 44.7947C45.2804 44.4339 45.2391 44.059 45.2589 43.6849C45.2668 42.4483 45.2748 41.2132 45.2763 39.9766C45.2763 35.7086 45.28 31.4396 45.2874 27.1695C45.3091 26.3461 45.288 25.5222 45.224 24.701C45.0549 22.7027 44.1328 20.8433 42.6445 19.4992C41.9588 18.8602 41.1806 18.3284 40.3361 17.9217C38.7732 17.1611 36.991 16.9802 35.3072 17.4112C34.4339 17.6263 33.5958 17.9648 32.818 18.4163C30.8267 19.5626 29.5949 21.2701 29.032 23.4897C28.8517 24.1787 28.759 24.8877 28.7562 25.5999C28.7562 26.5369 28.7403 27.4723 28.7403 28.4093C28.7403 33.4277 28.7445 38.4483 28.753 43.4709C28.753 43.7705 28.7641 44.0702 28.7419 44.3682C28.7229 44.5538 28.6797 44.7361 28.6135 44.9105C28.5679 45.0337 28.4904 45.1426 28.3891 45.2261C28.2877 45.3097 28.166 45.3649 28.0364 45.3861C27.8523 45.4192 27.6652 45.4324 27.4783 45.4257C26.0546 45.4257 24.6314 45.4257 23.2087 45.4257C23.0222 45.4257 22.8359 45.4146 22.6507 45.3924C22.5021 45.3682 22.3651 45.2974 22.2594 45.1903C22.1537 45.0831 22.0847 44.9452 22.0625 44.7963C22.0435 44.5728 22.0371 44.3476 22.0371 44.1241C22.045 37.9409 22.0656 31.7657 22.0593 25.5857C22.0593 21.9011 23.3276 18.7017 25.6836 15.9145C27.4942 13.7458 29.8672 12.1177 32.5422 11.209C34.2101 10.6438 35.9716 10.4064 37.7297 10.5098C39.7519 10.6334 41.7241 11.1892 43.5133 12.1396C45.3927 13.0829 47.076 14.374 48.4742 15.9447C50.1855 17.9002 51.3166 20.2949 51.7401 22.8587C51.9036 23.8186 51.9822 24.7911 51.9748 25.7648C51.9748 28.6482 51.9748 31.5316 51.9748 34.4149L51.9875 34.4117Z" fill="#FFB504"/>
<path d="M88.1575 45.4162C87.146 45.4162 86.1345 45.4162 85.123 45.4162C84.8988 45.4256 84.6742 45.4134 84.4523 45.3797C84.2845 45.3541 84.1251 45.289 83.9873 45.1898C83.8495 45.0906 83.7372 44.9601 83.6596 44.809C83.5325 44.5384 83.4203 44.2611 83.3235 43.9782C82.2295 40.9501 81.1372 37.9219 80.0464 34.8937C77.3744 27.5024 74.703 20.1106 72.0321 12.7183C71.8925 12.3331 71.715 11.9589 71.6769 11.5388C71.6698 11.483 71.6739 11.4264 71.6888 11.3723C71.7038 11.3181 71.7293 11.2674 71.7639 11.2232C71.7986 11.1789 71.8417 11.142 71.8907 11.1145C71.9397 11.0871 71.9937 11.0696 72.0495 11.0631C72.235 11.0473 72.4221 11.033 72.6092 11.033C74.1819 11.0267 75.7552 11.0235 77.329 11.0235C77.4789 11.0198 77.6289 11.0272 77.7777 11.0457C77.9465 11.0631 78.1088 11.1205 78.2511 11.2132C78.3933 11.3058 78.5115 11.431 78.5957 11.5784C78.7686 11.9096 78.9169 12.2529 79.0397 12.6058C80.0385 15.3538 81.0336 18.0982 82.025 20.8389C83.9434 26.1152 85.8633 31.391 87.7849 36.6662C87.8879 36.9468 88.0132 37.218 88.1321 37.4922C88.1464 37.5239 88.1987 37.5699 88.2114 37.5636C88.2637 37.5382 88.335 37.5049 88.3541 37.4558C88.7282 36.4776 89.104 35.4994 89.4639 34.5148C92.157 27.132 94.8496 19.7481 97.5416 12.3632C97.622 12.1136 97.7184 11.8695 97.8302 11.6323C97.9066 11.4596 98.0301 11.312 98.1866 11.2063C98.343 11.1006 98.5261 11.0411 98.7148 11.0346C98.7513 11.0346 98.7894 11.0346 98.8274 11.0346H104.334C104.408 11.0402 104.481 11.0514 104.554 11.0679C104.64 11.1005 104.716 11.1567 104.772 11.2301C104.828 11.3036 104.862 11.3913 104.871 11.4833C104.815 11.8539 104.708 12.2151 104.554 12.5566C103.551 15.3364 102.542 18.1156 101.527 20.8944C98.9083 28.106 96.2902 35.3181 93.6732 42.5307C93.456 43.13 93.2562 43.7341 93.0279 44.3286C92.695 45.1911 92.3525 45.4178 91.4171 45.4194C90.3295 45.4194 89.2435 45.4194 88.1575 45.4194V45.4162Z" fill="#FFB504"/>
<path d="M160.713 45.9172C157.285 45.9965 153.579 43.9418 151.755 40.6171C151.418 39.991 151.144 39.3324 150.939 38.6512C150.897 38.5079 150.866 38.3616 150.847 38.2136C150.782 37.7665 150.95 37.4732 151.369 37.3527C151.787 37.2322 152.241 37.1419 152.673 37.023C153.783 36.7154 154.904 36.3999 156.02 36.0907C156.74 35.8894 157.086 36.0527 157.349 36.7249C157.431 36.9326 157.49 37.1514 157.582 37.3591C158.162 38.6607 159.21 39.2965 160.594 39.3266C161.369 39.3413 162.129 39.1152 162.77 38.6796C163.411 38.244 163.901 37.6203 164.172 36.8945C164.37 36.4049 164.437 35.8722 164.367 35.3488C164.297 34.8253 164.091 34.3292 163.771 33.9092C163.456 33.4882 163.063 33.1323 162.612 32.8612C162.327 32.682 162.027 32.5267 161.731 32.3681C160.079 31.4914 158.386 30.6987 156.677 29.9408C156.233 29.7427 155.784 29.554 155.357 29.3225C152.837 27.9575 151.269 25.8742 150.706 23.0537C150.633 22.6484 150.59 22.2383 150.577 21.8266C150.511 20.7427 150.584 19.6547 150.793 18.5892C151.323 16.0002 152.732 13.9914 154.828 12.452C156.123 11.4801 157.644 10.8547 159.248 10.6351C164.239 9.97552 168.431 12.6533 170.177 16.7421C170.327 17.0846 170.457 17.4356 170.567 17.7933C170.629 18.0465 170.669 18.305 170.685 18.5654C170.681 18.6591 170.652 18.75 170.6 18.8287C170.549 18.9073 170.478 18.9707 170.394 19.0125C170.29 19.0562 170.184 19.0938 170.077 19.125C168.41 19.5563 166.747 19.9907 165.089 20.4283C164.979 20.4542 164.866 20.4627 164.754 20.4536C164.679 20.4526 164.606 20.4338 164.539 20.3988C164.473 20.3638 164.416 20.3136 164.372 20.2523C164.276 20.0937 164.192 19.9273 164.111 19.7608C163.952 19.4263 163.805 19.0759 163.619 18.754C163.382 18.3034 163.026 17.9267 162.589 17.6653C162.152 17.4038 161.652 17.2676 161.143 17.2717C160.509 17.2558 159.874 17.2828 159.285 17.5888C158.761 17.8467 158.304 18.2204 157.947 18.6817C157.59 19.143 157.342 19.6795 157.224 20.2507C157.043 21.0608 157.287 21.8076 157.726 22.4909C157.98 22.8632 158.294 23.1906 158.655 23.4596C159.181 23.8794 159.753 24.2379 160.36 24.5282C161.17 24.9134 161.993 25.2702 162.811 25.638C163.629 26.0058 164.453 26.3609 165.262 26.7478C166.108 27.1534 166.906 27.6539 167.64 28.2397C169.373 29.5888 170.533 31.5421 170.888 33.7094C171.464 36.8929 170.697 39.734 168.669 42.2184C167.196 44.029 165.287 45.1388 163.029 45.6826C162.269 45.8497 161.492 45.9285 160.713 45.9172Z" fill="#FFB504"/>
<path d="M67.2187 28.2476C67.2187 33.4129 67.2187 38.5777 67.2187 43.742C67.2232 44.041 67.211 44.3401 67.1822 44.6378C67.1596 44.8447 67.0634 45.0366 66.9113 45.1786C66.7591 45.3206 66.561 45.4032 66.353 45.4115C66.093 45.4273 65.8298 45.4115 65.5683 45.4115H62.0898C61.9027 45.4115 61.7157 45.421 61.5286 45.4115C61.0054 45.3956 60.7089 45.1451 60.617 44.6061C60.5708 44.3113 60.5474 44.0134 60.5472 43.715C60.5472 42.8906 60.5472 42.0678 60.5472 41.245C60.5472 34.0577 60.5472 26.8704 60.5472 19.6831C60.5472 17.2495 60.5377 14.8174 60.5361 12.3901C60.5331 12.1662 60.5485 11.9425 60.5821 11.7211C60.6077 11.5335 60.6988 11.361 60.8391 11.234C60.9795 11.1069 61.1602 11.0335 61.3494 11.0267C61.4985 11.0171 61.6491 11.0156 61.7981 11.014H65.9503C66.0994 11.014 66.2484 11.014 66.3974 11.0282C66.5856 11.0417 66.7636 11.119 66.9019 11.2472C67.0403 11.3755 67.1308 11.5471 67.1584 11.7338C67.1917 12.0311 67.206 12.3303 67.2012 12.6295C67.2012 14.5019 67.1901 16.3727 67.1886 18.2435C67.1886 21.574 67.1886 24.9034 67.1886 28.2317L67.2187 28.2476Z" fill="#FFB504"/>
<path d="M67.1933 3.23745C67.1933 4.03016 67.1933 4.81019 67.1933 5.59657C67.1883 5.78295 67.1713 5.96883 67.1426 6.15305C67.1198 6.2435 67.0738 6.3264 67.0089 6.39345C66.9441 6.46051 66.8628 6.50936 66.7732 6.53514C66.5875 6.55918 66.4007 6.57294 66.2135 6.57636C65.5032 6.57636 64.7866 6.57636 64.0795 6.57636C63.5552 6.55901 63.0305 6.59406 62.5131 6.681C62.2184 6.736 61.9175 6.74987 61.6189 6.72222C61.3154 6.71443 61.0267 6.58907 60.8137 6.37257C60.6008 6.15607 60.4802 5.86535 60.4774 5.56169C60.4648 5.37482 60.4648 5.18731 60.4774 5.00045C60.6043 3.7321 60.5282 2.46376 60.5615 1.18432C60.5638 0.960015 60.5797 0.736061 60.609 0.513679C60.6331 0.384353 60.6983 0.266242 60.7948 0.176856C60.8914 0.0874704 61.0141 0.0315693 61.1449 0.0174398C61.2575 0.00792725 61.37 0 61.481 0H66.3134C66.8287 0 67.1997 0.101468 67.1997 0.875157C67.1997 1.64885 67.1997 2.4479 67.1997 3.23428L67.1933 3.23745Z" fill="#FFB504"/>
<path d="M142.051 36.2905C142.051 34.1565 142.051 32.0225 142.051 29.8869C142.051 28.9135 142.006 27.9416 141.916 26.9713C141.75 24.9908 141.268 23.0496 140.489 21.221C138.527 16.6597 135.257 13.4524 130.585 11.6957C128.264 10.8313 125.796 10.4305 123.321 10.5162C122.424 10.5276 121.53 10.6119 120.648 10.7682C118.396 11.1886 116.264 12.0972 114.401 13.4302C111.642 15.3945 109.427 18.0272 107.964 21.0815C106.434 24.1591 105.962 27.6553 106.621 31.0284C107.107 33.6505 108.114 36.1483 109.583 38.3737C111.495 41.3176 114.295 43.576 117.577 44.8217C118.934 45.3598 120.362 45.7015 121.816 45.8364C123.349 45.9842 124.893 45.9368 126.414 45.6953C128.849 45.2878 131.105 44.457 133.13 43.0317C133.712 42.6227 134.268 42.1788 134.839 41.7539C134.925 41.6854 135.022 41.6318 135.126 41.5953C135.17 41.5811 135.284 41.6508 135.292 41.6857C135.311 42.396 135.321 43.1126 135.329 43.8165C135.329 44.1162 135.319 44.4158 135.337 44.7139C135.346 44.8845 135.416 45.0462 135.534 45.17C135.652 45.2937 135.81 45.3715 135.98 45.3893C136.24 45.4178 136.502 45.4274 136.764 45.4178C138.032 45.4178 139.3 45.4178 140.581 45.4178C140.806 45.4178 141.032 45.4178 141.255 45.4099C141.444 45.4012 141.624 45.327 141.765 45.2C141.905 45.073 141.997 44.9011 142.024 44.7139C142.053 44.4538 142.065 44.1922 142.06 43.9307C142.06 41.3845 142.06 38.8377 142.06 36.2905H142.051ZM132.524 35.5374C130.988 37.3002 128.926 38.5229 126.642 39.0253C125.365 39.3255 124.044 39.3841 122.745 39.1982C121.073 38.9729 119.474 38.3682 118.071 37.4304C115.777 35.8799 114.295 33.7348 113.558 31.076C113.149 29.6308 113.05 28.1154 113.269 26.6294C113.487 25.1435 114.018 23.7206 114.826 22.4544C116.488 19.8913 118.804 18.2441 121.777 17.5127C126.067 16.4472 130.136 18.1468 132.662 21.1591C134.142 22.9175 135.056 25.0822 135.284 27.3693C135.316 27.6657 135.318 27.967 135.335 28.2952C135.265 31.0284 134.36 33.4637 132.524 35.5374Z" fill="#FFB504"/>
<mask id="mask0_1207_5428" style="mask-type:alpha" maskUnits="userSpaceOnUse" x="22" y="0" width="150" height="46">
<path d="M51.9875 34.4117C51.9875 37.4822 51.9875 40.5532 51.9875 43.6247C51.9875 43.9988 51.9875 44.373 51.9573 44.7472C51.9369 44.9159 51.8592 45.0726 51.7371 45.1909C51.6151 45.3093 51.456 45.3821 51.2867 45.3972C51.1385 45.4165 50.989 45.4239 50.8396 45.4194C49.4159 45.4194 47.9932 45.4194 46.5716 45.4194C46.3849 45.426 46.198 45.4101 46.0151 45.3718C45.8671 45.3421 45.7299 45.2727 45.6182 45.171C45.5065 45.0694 45.4245 44.9393 45.381 44.7947C45.2804 44.4339 45.2391 44.059 45.2589 43.6849C45.2668 42.4483 45.2748 41.2132 45.2763 39.9766C45.2763 35.7086 45.28 31.4396 45.2874 27.1695C45.3091 26.3461 45.288 25.5222 45.224 24.701C45.0549 22.7027 44.1328 20.8433 42.6445 19.4992C41.9588 18.8602 41.1806 18.3284 40.3361 17.9217C38.7732 17.1611 36.991 16.9802 35.3072 17.4112C34.4339 17.6263 33.5958 17.9648 32.818 18.4163C30.8267 19.5626 29.5949 21.2701 29.032 23.4897C28.8517 24.1787 28.759 24.8877 28.7562 25.5999C28.7562 26.5369 28.7403 27.4723 28.7403 28.4093C28.7403 33.4277 28.7445 38.4483 28.753 43.4709C28.753 43.7705 28.7641 44.0702 28.7419 44.3682C28.7229 44.5538 28.6797 44.7361 28.6135 44.9105C28.5679 45.0337 28.4904 45.1426 28.3891 45.2261C28.2877 45.3097 28.166 45.3649 28.0364 45.3861C27.8523 45.4192 27.6652 45.4324 27.4783 45.4257C26.0546 45.4257 24.6314 45.4257 23.2087 45.4257C23.0222 45.4257 22.8359 45.4146 22.6507 45.3924C22.5021 45.3682 22.3651 45.2974 22.2594 45.1903C22.1537 45.0831 22.0847 44.9452 22.0625 44.7963C22.0435 44.5728 22.0371 44.3476 22.0371 44.1241C22.045 37.9409 22.0656 31.7657 22.0593 25.5857C22.0593 21.9011 23.3276 18.7017 25.6836 15.9145C27.4942 13.7458 29.8672 12.1177 32.5422 11.209C34.2101 10.6438 35.9716 10.4064 37.7297 10.5098C39.7519 10.6334 41.7241 11.1892 43.5133 12.1396C45.3927 13.0829 47.076 14.374 48.4742 15.9447C50.1855 17.9002 51.3166 20.2949 51.7401 22.8587C51.9036 23.8186 51.9822 24.7911 51.9748 25.7648C51.9748 28.6482 51.9748 31.5316 51.9748 34.4149L51.9875 34.4117Z" fill="#FFBA1A"/>
<path d="M88.1575 45.4162C87.146 45.4162 86.1345 45.4162 85.123 45.4162C84.8988 45.4256 84.6742 45.4134 84.4523 45.3797C84.2845 45.3541 84.1251 45.289 83.9873 45.1898C83.8495 45.0906 83.7372 44.9601 83.6596 44.809C83.5325 44.5384 83.4203 44.2611 83.3235 43.9782C82.2295 40.9501 81.1372 37.9219 80.0464 34.8937C77.3744 27.5024 74.703 20.1106 72.0321 12.7183C71.8925 12.3331 71.715 11.9589 71.6769 11.5388C71.6698 11.483 71.6739 11.4264 71.6888 11.3723C71.7038 11.3181 71.7293 11.2674 71.7639 11.2232C71.7986 11.1789 71.8417 11.142 71.8907 11.1145C71.9397 11.0871 71.9937 11.0696 72.0495 11.0631C72.235 11.0473 72.4221 11.033 72.6092 11.033C74.1819 11.0267 75.7552 11.0235 77.329 11.0235C77.4789 11.0198 77.6289 11.0272 77.7777 11.0457C77.9465 11.0631 78.1088 11.1205 78.2511 11.2132C78.3933 11.3058 78.5115 11.431 78.5957 11.5784C78.7686 11.9096 78.9169 12.2529 79.0397 12.6058C80.0385 15.3538 81.0336 18.0982 82.025 20.8389C83.9434 26.1152 85.8633 31.391 87.7849 36.6662C87.8879 36.9468 88.0132 37.218 88.1321 37.4922C88.1464 37.5239 88.1987 37.5699 88.2114 37.5636C88.2637 37.5382 88.335 37.5049 88.3541 37.4558C88.7282 36.4776 89.104 35.4994 89.4639 34.5148C92.157 27.132 94.8496 19.7481 97.5416 12.3632C97.622 12.1136 97.7184 11.8695 97.8302 11.6323C97.9066 11.4596 98.0301 11.312 98.1866 11.2063C98.343 11.1006 98.5261 11.0411 98.7148 11.0346C98.7513 11.0346 98.7894 11.0346 98.8274 11.0346H104.334C104.408 11.0402 104.481 11.0514 104.554 11.0679C104.64 11.1005 104.716 11.1567 104.772 11.2301C104.828 11.3036 104.862 11.3913 104.871 11.4833C104.815 11.8539 104.708 12.2151 104.554 12.5566C103.551 15.3364 102.542 18.1156 101.527 20.8944C98.9083 28.106 96.2902 35.3181 93.6732 42.5307C93.456 43.13 93.2562 43.7341 93.0279 44.3286C92.695 45.1911 92.3525 45.4178 91.4171 45.4194C90.3295 45.4194 89.2435 45.4194 88.1575 45.4194V45.4162Z" fill="#FFBA1A"/>
<path d="M160.713 45.9172C157.285 45.9965 153.579 43.9418 151.755 40.6171C151.418 39.991 151.144 39.3324 150.939 38.6512C150.897 38.5079 150.866 38.3616 150.847 38.2136C150.782 37.7665 150.95 37.4732 151.369 37.3527C151.787 37.2322 152.241 37.1419 152.673 37.023C153.783 36.7154 154.904 36.3999 156.02 36.0907C156.74 35.8894 157.086 36.0527 157.349 36.7249C157.431 36.9326 157.49 37.1514 157.582 37.3591C158.162 38.6607 159.21 39.2965 160.594 39.3266C161.369 39.3413 162.129 39.1152 162.77 38.6796C163.411 38.244 163.901 37.6203 164.172 36.8945C164.37 36.4049 164.437 35.8722 164.367 35.3488C164.297 34.8253 164.091 34.3292 163.771 33.9092C163.456 33.4882 163.063 33.1323 162.612 32.8612C162.327 32.682 162.027 32.5267 161.731 32.3681C160.079 31.4914 158.386 30.6987 156.677 29.9408C156.233 29.7427 155.784 29.554 155.357 29.3225C152.837 27.9575 151.269 25.8742 150.706 23.0537C150.633 22.6484 150.59 22.2383 150.577 21.8266C150.511 20.7427 150.584 19.6547 150.793 18.5892C151.323 16.0002 152.732 13.9914 154.828 12.452C156.123 11.4801 157.644 10.8547 159.248 10.6351C164.239 9.97552 168.431 12.6533 170.177 16.7421C170.327 17.0846 170.457 17.4356 170.567 17.7933C170.629 18.0465 170.669 18.305 170.685 18.5654C170.681 18.6591 170.652 18.75 170.6 18.8287C170.549 18.9073 170.478 18.9707 170.394 19.0125C170.29 19.0562 170.184 19.0938 170.077 19.125C168.41 19.5563 166.747 19.9907 165.089 20.4283C164.979 20.4542 164.866 20.4627 164.754 20.4536C164.679 20.4526 164.606 20.4338 164.539 20.3988C164.473 20.3638 164.416 20.3136 164.372 20.2523C164.276 20.0937 164.192 19.9273 164.111 19.7608C163.952 19.4263 163.805 19.0759 163.619 18.754C163.382 18.3034 163.026 17.9267 162.589 17.6653C162.152 17.4038 161.652 17.2676 161.143 17.2717C160.509 17.2558 159.874 17.2828 159.285 17.5888C158.761 17.8467 158.304 18.2204 157.947 18.6817C157.59 19.143 157.342 19.6795 157.224 20.2507C157.043 21.0608 157.287 21.8076 157.726 22.4909C157.98 22.8632 158.294 23.1906 158.655 23.4596C159.181 23.8794 159.753 24.2379 160.36 24.5282C161.17 24.9134 161.993 25.2702 162.811 25.638C163.629 26.0058 164.453 26.3609 165.262 26.7478C166.108 27.1534 166.906 27.6539 167.64 28.2397C169.373 29.5888 170.533 31.5421 170.888 33.7094C171.464 36.8929 170.697 39.734 168.669 42.2184C167.196 44.029 165.287 45.1388 163.029 45.6826C162.269 45.8497 161.492 45.9285 160.713 45.9172Z" fill="#FFBA1A"/>
<path d="M67.2187 28.2476C67.2187 33.4129 67.2187 38.5777 67.2187 43.742C67.2232 44.041 67.211 44.3401 67.1822 44.6378C67.1596 44.8447 67.0634 45.0366 66.9113 45.1786C66.7591 45.3206 66.561 45.4032 66.353 45.4115C66.093 45.4273 65.8298 45.4115 65.5683 45.4115H62.0898C61.9027 45.4115 61.7157 45.421 61.5286 45.4115C61.0054 45.3956 60.7089 45.1451 60.617 44.6061C60.5708 44.3113 60.5474 44.0134 60.5472 43.715C60.5472 42.8906 60.5472 42.0678 60.5472 41.245C60.5472 34.0577 60.5472 26.8704 60.5472 19.6831C60.5472 17.2495 60.5377 14.8174 60.5361 12.3901C60.5331 12.1662 60.5485 11.9425 60.5821 11.7211C60.6077 11.5335 60.6988 11.361 60.8391 11.234C60.9795 11.1069 61.1602 11.0335 61.3494 11.0267C61.4985 11.0171 61.6491 11.0156 61.7981 11.014H65.9503C66.0994 11.014 66.2484 11.014 66.3974 11.0282C66.5856 11.0417 66.7636 11.119 66.9019 11.2472C67.0403 11.3755 67.1308 11.5471 67.1584 11.7338C67.1917 12.0311 67.206 12.3303 67.2012 12.6295C67.2012 14.5019 67.1901 16.3727 67.1886 18.2435C67.1886 21.574 67.1886 24.9034 67.1886 28.2317L67.2187 28.2476Z" fill="#FFBA1A"/>
<path d="M67.1933 3.23745C67.1933 4.03016 67.1933 4.81019 67.1933 5.59657C67.1883 5.78295 67.1713 5.96883 67.1426 6.15305C67.1198 6.2435 67.0738 6.3264 67.0089 6.39345C66.9441 6.46051 66.8628 6.50936 66.7732 6.53514C66.5875 6.55918 66.4007 6.57294 66.2135 6.57636C65.5032 6.57636 64.7866 6.57636 64.0795 6.57636C63.5552 6.55901 63.0305 6.59406 62.5131 6.681C62.2184 6.736 61.9175 6.74987 61.6189 6.72222C61.3154 6.71443 61.0267 6.58907 60.8137 6.37257C60.6008 6.15607 60.4802 5.86535 60.4774 5.56169C60.4648 5.37482 60.4648 5.18731 60.4774 5.00045C60.6043 3.7321 60.5282 2.46376 60.5615 1.18432C60.5638 0.960015 60.5797 0.736061 60.609 0.513679C60.6331 0.384353 60.6983 0.266242 60.7948 0.176856C60.8914 0.0874704 61.0141 0.0315693 61.1449 0.0174398C61.2575 0.00792725 61.37 0 61.481 0H66.3134C66.8287 0 67.1997 0.101468 67.1997 0.875157C67.1997 1.64885 67.1997 2.4479 67.1997 3.23428L67.1933 3.23745Z" fill="#FFBA1A"/>
<path d="M142.051 36.2905C142.051 34.1565 142.051 32.0225 142.051 29.8869C142.051 28.9135 142.006 27.9416 141.916 26.9713C141.75 24.9908 141.268 23.0496 140.489 21.221C138.527 16.6597 135.257 13.4524 130.585 11.6957C128.264 10.8313 125.796 10.4305 123.321 10.5162C122.424 10.5276 121.53 10.6119 120.648 10.7682C118.396 11.1886 116.264 12.0972 114.401 13.4302C111.642 15.3945 109.427 18.0272 107.964 21.0815C106.434 24.1591 105.962 27.6553 106.621 31.0284C107.107 33.6505 108.114 36.1483 109.583 38.3737C111.495 41.3176 114.295 43.576 117.577 44.8217C118.934 45.3598 120.362 45.7015 121.816 45.8364C123.349 45.9842 124.893 45.9368 126.414 45.6953C128.849 45.2878 131.105 44.457 133.13 43.0317C133.712 42.6227 134.268 42.1788 134.839 41.7539C134.925 41.6854 135.022 41.6318 135.126 41.5953C135.17 41.5811 135.284 41.6508 135.292 41.6857C135.311 42.396 135.321 43.1126 135.329 43.8165C135.329 44.1162 135.319 44.4158 135.337 44.7139C135.346 44.8845 135.416 45.0462 135.534 45.17C135.652 45.2937 135.81 45.3715 135.98 45.3893C136.24 45.4178 136.502 45.4274 136.764 45.4178C138.032 45.4178 139.3 45.4178 140.581 45.4178C140.806 45.4178 141.032 45.4178 141.255 45.4099C141.444 45.4012 141.624 45.327 141.765 45.2C141.905 45.073 141.997 44.9011 142.024 44.7139C142.053 44.4538 142.065 44.1922 142.06 43.9307C142.06 41.3845 142.06 38.8377 142.06 36.2905H142.051ZM132.524 35.5374C130.988 37.3002 128.926 38.5229 126.642 39.0253C125.365 39.3255 124.044 39.3841 122.745 39.1982C121.073 38.9729 119.474 38.3682 118.071 37.4304C115.777 35.8799 114.295 33.7348 113.558 31.076C113.149 29.6308 113.05 28.1154 113.269 26.6294C113.487 25.1435 114.018 23.7206 114.826 22.4544C116.488 19.8913 118.804 18.2441 121.777 17.5127C126.067 16.4472 130.136 18.1468 132.662 21.1591C134.142 22.9175 135.056 25.0822 135.284 27.3693C135.316 27.6657 135.318 27.967 135.335 28.2952C135.265 31.0284 134.36 33.4637 132.524 35.5374Z" fill="#FFBA1A"/>
</mask>
<g mask="url(#mask0_1207_5428)">
<g style="mix-blend-mode:darken">
<path fill-rule="evenodd" clip-rule="evenodd" d="M183.071 87.7662L3.80937 44.5505L4.73828 40.6973L184 83.913L183.071 87.7662Z" fill="#FFBB1E"/>
</g>
</g>
</svg>
