<svg width="34" height="34" viewBox="0 0 34 34" fill="none" xmlns="http://www.w3.org/2000/svg">
<path d="M16.8612 0C26.183 0 33.7223 7.53934 33.7223 16.8612C33.7223 26.183 26.183 33.7223 16.8612 33.7223C7.53934 33.7223 0 26.183 0 16.8612C0 7.53934 7.53934 0 16.8612 0ZM13.778 25.7494C21.2451 25.7494 25.3399 19.5589 25.3399 14.1875V13.6575C26.1348 13.0794 26.8333 12.3568 27.3632 11.5378C26.6406 11.851 25.8457 12.0678 25.0268 12.1882C25.8698 11.6824 26.5202 10.8875 26.8092 9.94808C26.0143 10.4057 25.1472 10.743 24.2319 10.9357C23.4852 10.1408 22.4253 9.65903 21.2691 9.65903C19.029 9.65903 17.1984 11.4897 17.1984 13.7298C17.1984 14.0429 17.2225 14.3561 17.3188 14.6451C13.9466 14.4765 10.9357 12.8627 8.93641 10.4057C8.59919 11.0079 8.3824 11.7065 8.3824 12.4532C8.3824 13.8502 9.10502 15.1028 10.189 15.8254C9.51451 15.8254 8.88824 15.6327 8.35831 15.3196V15.3677C8.35831 17.3429 9.75538 18.9808 11.6101 19.3662C11.2729 19.4626 10.9116 19.5108 10.5503 19.5108C10.2853 19.5108 10.0444 19.4867 9.77947 19.4385C10.2853 21.0524 11.8028 22.2326 13.5612 22.2567C12.1641 23.3407 10.4057 23.991 8.50284 23.991C8.16561 23.991 7.85248 23.991 7.53934 23.9428C9.32181 25.099 11.4656 25.7735 13.7539 25.7735" fill="#FFB504"/>
</svg>
